<svg width="184" height="44" viewBox="0 0 184 44" fill="none" xmlns="http://www.w3.org/2000/svg">
<path d="M15.1352 3.25458L2.13519 14.2019C0.781398 15.342 0 17.0216 0 18.7914V34.5C0 37.8137 2.68629 40.5 6 40.5H32C35.3137 40.5 38 37.8137 38 34.5V18.7914C38 17.0216 37.2186 15.342 35.8648 14.2019L22.8648 3.25458C20.6315 1.37387 17.3685 1.37387 15.1352 3.25458Z" fill="#7065F0"/>
<path d="M9 27C12 30 20 34.2 28 27" stroke="white" stroke-width="3" stroke-linecap="round" stroke-linejoin="round"/>
<path d="M53.1491 36V11.2727H69.8111V15.5831H58.3771V21.4751H68.9538V25.7855H58.3771V31.6896H69.8594V36H53.1491ZM88.1113 22.7429L83.4025 23.0327C83.322 22.6302 83.149 22.268 82.8833 21.946C82.6177 21.616 82.2676 21.3544 81.8329 21.1612C81.4063 20.96 80.8952 20.8594 80.2995 20.8594C79.5026 20.8594 78.8305 21.0284 78.2832 21.3665C77.7358 21.6965 77.4622 22.1392 77.4622 22.6946C77.4622 23.1373 77.6392 23.5116 77.9934 23.8175C78.3476 24.1233 78.9553 24.3688 79.8166 24.554L83.1731 25.2301C84.9761 25.6004 86.3204 26.196 87.2058 27.017C88.0912 27.8381 88.5339 28.9167 88.5339 30.2528C88.5339 31.4683 88.1757 32.5348 87.4593 33.4524C86.751 34.37 85.777 35.0864 84.5375 35.6016C83.3059 36.1087 81.8852 36.3622 80.2754 36.3622C77.8204 36.3622 75.8644 35.8511 74.4075 34.8288C72.9586 33.7985 72.1094 32.398 71.8599 30.6271L76.9188 30.3615C77.0718 31.1101 77.442 31.6816 78.0296 32.076C78.6172 32.4624 79.3698 32.6555 80.2874 32.6555C81.189 32.6555 81.9134 32.4825 82.4607 32.1364C83.0161 31.7822 83.2979 31.3274 83.3059 30.772C83.2979 30.3052 83.1007 29.9228 82.7143 29.625C82.3279 29.3191 81.7323 29.0857 80.9274 28.9247L77.7157 28.2848C75.9046 27.9226 74.5564 27.2947 73.671 26.4013C72.7936 25.5078 72.3549 24.3688 72.3549 22.9844C72.3549 21.7931 72.6769 20.7668 73.3208 19.9055C73.9728 19.0443 74.8864 18.3802 76.0616 17.9134C77.2448 17.4465 78.6293 17.2131 80.215 17.2131C82.5573 17.2131 84.4006 17.7081 85.7448 18.6982C87.0971 19.6882 87.8859 21.0365 88.1113 22.7429ZM100.447 17.4545V21.3182H89.2787V17.4545H100.447ZM91.8142 13.0114H96.9577V30.3011C96.9577 30.776 97.0302 31.1463 97.175 31.4119C97.3199 31.6695 97.5212 31.8506 97.7787 31.9553C98.0444 32.0599 98.3502 32.1122 98.6963 32.1122C98.9378 32.1122 99.1793 32.0921 99.4208 32.0518C99.6623 32.0036 99.8474 31.9673 99.9762 31.9432L100.785 35.7706C100.528 35.8511 100.165 35.9437 99.6985 36.0483C99.2316 36.161 98.6642 36.2294 97.9961 36.2536C96.7565 36.3018 95.6698 36.1368 94.7361 35.7585C93.8105 35.3802 93.0901 34.7926 92.5749 33.9957C92.0597 33.1989 91.8062 32.1927 91.8142 30.9773V13.0114ZM107.896 36.3501C106.713 36.3501 105.658 36.1449 104.733 35.7344C103.807 35.3158 103.074 34.7 102.535 33.8871C102.004 33.0661 101.738 32.0438 101.738 30.8203C101.738 29.79 101.927 28.9247 102.306 28.2244C102.684 27.5241 103.199 26.9607 103.851 26.5341C104.503 26.1075 105.244 25.7855 106.073 25.5682C106.91 25.3509 107.787 25.1979 108.705 25.1094C109.783 24.9967 110.653 24.892 111.313 24.7955C111.973 24.6908 112.452 24.5379 112.75 24.3366C113.047 24.1354 113.196 23.8376 113.196 23.4432V23.3707C113.196 22.6061 112.955 22.0144 112.472 21.5959C111.997 21.1773 111.321 20.968 110.443 20.968C109.518 20.968 108.781 21.1733 108.234 21.5838C107.687 21.9863 107.324 22.4934 107.147 23.1051L102.39 22.7188C102.632 21.5919 103.107 20.6179 103.815 19.7969C104.523 18.9678 105.437 18.3319 106.556 17.8892C107.683 17.4384 108.987 17.2131 110.468 17.2131C111.498 17.2131 112.484 17.3338 113.426 17.5753C114.376 17.8168 115.217 18.1911 115.949 18.6982C116.69 19.2053 117.273 19.8572 117.7 20.6541C118.126 21.4429 118.34 22.3887 118.34 23.4915V36H113.462V33.4283H113.317C113.019 34.0078 112.621 34.5189 112.122 34.9616C111.623 35.3963 111.023 35.7384 110.323 35.9879C109.622 36.2294 108.814 36.3501 107.896 36.3501ZM109.369 32.8004C110.126 32.8004 110.794 32.6515 111.373 32.3537C111.953 32.0478 112.408 31.6373 112.738 31.1222C113.068 30.607 113.233 30.0234 113.233 29.3714V27.4034C113.072 27.508 112.85 27.6046 112.568 27.6932C112.295 27.7737 111.985 27.8501 111.639 27.9226C111.293 27.987 110.947 28.0473 110.6 28.1037C110.254 28.152 109.94 28.1963 109.659 28.2365C109.055 28.325 108.528 28.4659 108.077 28.6591C107.626 28.8523 107.276 29.1139 107.027 29.4439C106.777 29.7659 106.652 30.1683 106.652 30.6513C106.652 31.3516 106.906 31.8868 107.413 32.2571C107.928 32.6193 108.58 32.8004 109.369 32.8004ZM131.005 17.4545V21.3182H119.836V17.4545H131.005ZM122.372 13.0114H127.515V30.3011C127.515 30.776 127.588 31.1463 127.733 31.4119C127.877 31.6695 128.079 31.8506 128.336 31.9553C128.602 32.0599 128.908 32.1122 129.254 32.1122C129.495 32.1122 129.737 32.0921 129.978 32.0518C130.22 32.0036 130.405 31.9673 130.534 31.9432L131.343 35.7706C131.085 35.8511 130.723 35.9437 130.256 36.0483C129.789 36.161 129.222 36.2294 128.554 36.2536C127.314 36.3018 126.227 36.1368 125.294 35.7585C124.368 35.3802 123.648 34.7926 123.132 33.9957C122.617 33.1989 122.364 32.1927 122.372 30.9773V13.0114ZM141.418 36.3622C139.51 36.3622 137.868 35.9759 136.491 35.2031C135.123 34.4223 134.069 33.3196 133.328 31.8949C132.588 30.4621 132.217 28.7678 132.217 26.8118C132.217 24.9041 132.588 23.2299 133.328 21.7891C134.069 20.3482 135.111 19.2254 136.455 18.4205C137.807 17.6155 139.393 17.2131 141.212 17.2131C142.436 17.2131 143.575 17.4103 144.629 17.8047C145.692 18.1911 146.617 18.7746 147.406 19.5554C148.203 20.3362 148.823 21.3182 149.266 22.5014C149.708 23.6766 149.93 25.053 149.93 26.6307V28.0433H134.27V24.8558H145.088C145.088 24.1153 144.927 23.4593 144.605 22.8878C144.283 22.3163 143.836 21.8696 143.265 21.5476C142.701 21.2176 142.045 21.0526 141.297 21.0526C140.516 21.0526 139.824 21.2337 139.22 21.5959C138.624 21.95 138.158 22.429 137.82 23.0327C137.481 23.6283 137.308 24.2924 137.3 25.0249V28.0554C137.3 28.973 137.469 29.7659 137.807 30.4339C138.154 31.102 138.641 31.6172 139.268 31.9794C139.896 32.3416 140.641 32.5227 141.502 32.5227C142.074 32.5227 142.597 32.4422 143.072 32.2812C143.547 32.1203 143.953 31.8788 144.291 31.5568C144.629 31.2348 144.887 30.8404 145.064 30.3736L149.821 30.6875C149.579 31.8305 149.084 32.8286 148.336 33.6818C147.595 34.527 146.637 35.187 145.462 35.6619C144.295 36.1288 142.947 36.3622 141.418 36.3622ZM152.096 36V17.4545H157.083V20.6903H157.276C157.614 19.5393 158.181 18.67 158.978 18.0824C159.775 17.4867 160.693 17.1889 161.731 17.1889C161.989 17.1889 162.266 17.205 162.564 17.2372C162.862 17.2694 163.124 17.3137 163.349 17.37V21.9339C163.108 21.8615 162.773 21.7971 162.347 21.7408C161.92 21.6844 161.53 21.6562 161.176 21.6562C160.419 21.6562 159.743 21.8213 159.147 22.1513C158.56 22.4732 158.093 22.924 157.747 23.5036C157.409 24.0831 157.24 24.7512 157.24 25.5078V36H152.096ZM168.558 42.9545C167.906 42.9545 167.294 42.9022 166.723 42.7976C166.159 42.701 165.693 42.5762 165.322 42.4233L166.481 38.5838C167.085 38.7689 167.628 38.8696 168.111 38.8857C168.602 38.9018 169.025 38.7891 169.379 38.5476C169.741 38.3061 170.035 37.8956 170.261 37.3161L170.562 36.5312L163.91 17.4545H169.319L173.158 31.0739H173.351L177.227 17.4545H182.672L175.464 38.0043C175.118 39.0024 174.647 39.8717 174.052 40.6122C173.464 41.3608 172.72 41.9363 171.818 42.3388C170.917 42.7493 169.83 42.9545 168.558 42.9545Z" fill="#100A55"/>
</svg>
