<svg width="435" height="376" viewBox="0 0 435 376" fill="none" xmlns="http://www.w3.org/2000/svg">
<g clip-path="url(#clip0_9_2)">
<path d="M435 0C370 3.5 198 34.1 0 182.5" stroke="#7065f033"/>
<path d="M435 347C255.5 400.5 70 512 10 566.5" stroke="#7065f08a"/>
<path d="M435 305.5C255.5 359 70 470.5 10 525" stroke="#7065f08a"/>
<path d="M435 264.5C255.5 318 70 429.5 10 484" stroke="#7065f033"/>
<path d="M435 226.5C268.5 267.5 109 372.5 0 445.5" stroke="#7065f0"/>
<path d="M435 188.5C320 214 158 283.5 10 408" stroke="#7065f08a"/>
<path d="M435 148.5C321.5 170 148 243 0 367.5" stroke="#7065f0de"/>
<path d="M435 109C323.5 125.5 148 198.5 0 323" stroke="#7065f0"/>
<path d="M435 73.5C370 77 178 130 0 276" stroke="#7065f08a"/>
<path d="M435 36C370 39.5 178 84 0 230" stroke="#7065f094"/>
</g>
<defs>
<clipPath id="clip0_9_2">
<rect width="435" height="376" fill="white"/>
</clipPath>
</defs>
</svg>
